<svg class="icon" xmlns="http://www.w3.org/2000/svg">
    <g id="icon-medical-officer" stroke="none" stroke-width="1" fill="none" fill-rule="evenodd">
        <polygon points="0 0 24 0 24 24 0 24"/>
        <path d="M18,14 C16.3431458,14 15,12.6568542 15,11 C15,9.34314575 16.3431458,8 18,8 C19.6568542,8 21,9.34314575 21,11 C21,12.6568542 19.6568542,14 18,14 Z M9,11 C6.790861,11 5,9.209139 5,7 C5,4.790861 6.790861,3 9,3 C11.209139,3 13,4.790861 13,7 C13,9.209139 11.209139,11 9,11 Z" fill="currentColor" fill-rule="nonzero" opacity="0.3"/>
        <path d="M17.6011961,15.0006174 C21.0077043,15.0378534 23.7891749,16.7601418 23.9984937,20.4 C24.0069246,20.5466056 23.9984937,21 23.4559499,21 L19.6,21 C19.6,18.7490654 18.8562935,16.6718327 17.6011961,15.0006174 Z M0.00065168429,20.1992055 C0.388258525,15.4265159 4.26191235,13 8.98334134,13 C13.7712164,13 17.7048837,15.2931929 17.9979143,20.2 C18.0095879,20.3954741 17.9979143,21 17.2466999,21 C13.541124,21 8.03472472,21 0.727502227,21 C0.476712155,21 -0.0204617505,20.45918 0.00065168429,20.1992055 Z" fill="currentColor" fill-rule="nonzero"/>
    </g>
    <g id="icon-record" stroke="none" stroke-width="1" fill="none" fill-rule="evenodd">
        <rect x="0" y="0" width="24" height="24"/>
        <path d="M8,3 L8,3.5 C8,4.32842712 8.67157288,5 9.5,5 L14.5,5 C15.3284271,5 16,4.32842712 16,3.5 L16,3 L18,3 C19.1045695,3 20,3.8954305 20,5 L20,21 C20,22.1045695 19.1045695,23 18,23 L6,23 C4.8954305,23 4,22.1045695 4,21 L4,5 C4,3.8954305 4.8954305,3 6,3 L8,3 Z" fill="currentColor" opacity="0.3"/>
        <path d="M11,2 C11,1.44771525 11.4477153,1 12,1 C12.5522847,1 13,1.44771525 13,2 L14.5,2 C14.7761424,2 15,2.22385763 15,2.5 L15,3.5 C15,3.77614237 14.7761424,4 14.5,4 L9.5,4 C9.22385763,4 9,3.77614237 9,3.5 L9,2.5 C9,2.22385763 9.22385763,2 9.5,2 L11,2 Z" fill="currentColor"/>
        <rect fill="currentColor" opacity="0.3" x="10" y="9" width="7" height="2" rx="1"/>
        <rect fill="currentColor" opacity="0.3" x="7" y="9" width="2" height="2" rx="1"/>
        <rect fill="currentColor" opacity="0.3" x="7" y="13" width="2" height="2" rx="1"/>
        <rect fill="currentColor" opacity="0.3" x="10" y="13" width="7" height="2" rx="1"/>
        <rect fill="currentColor" opacity="0.3" x="7" y="17" width="2" height="2" rx="1"/>
        <rect fill="currentColor" opacity="0.3" x="10" y="17" width="7" height="2" rx="1"/>
    </g>
    <g id="icon-role" stroke="none" stroke-width="1" fill="none" fill-rule="evenodd">
        <rect x="0" y="0" width="24" height="24"/>
        <path d="M12.2674799,18.2323597 L12.0084872,5.45852451 C12.0004303,5.06114792 12.1504154,4.6768183 12.4255037,4.38993949 L15.0030167,1.70195304 L17.5910752,4.40093695 C17.8599071,4.6812911 18.0095067,5.05499603 18.0083938,5.44341307 L17.9718262,18.2062508 C17.9694575,19.0329966 17.2985816,19.701953 16.4718324,19.701953 L13.7671717,19.701953 C12.9505952,19.701953 12.2840328,19.0487684 12.2674799,18.2323597 Z" fill="currentColor" fill-rule="nonzero" transform="translate(14.701953, 10.701953) rotate(-135.000000) translate(-14.701953, -10.701953) "/>
        <path d="M12.9,2 C13.4522847,2 13.9,2.44771525 13.9,3 C13.9,3.55228475 13.4522847,4 12.9,4 L6,4 C4.8954305,4 4,4.8954305 4,6 L4,18 C4,19.1045695 4.8954305,20 6,20 L18,20 C19.1045695,20 20,19.1045695 20,18 L20,13 C20,12.4477153 20.4477153,12 21,12 C21.5522847,12 22,12.4477153 22,13 L22,18 C22,20.209139 20.209139,22 18,22 L6,22 C3.790861,22 2,20.209139 2,18 L2,6 C2,3.790861 3.790861,2 6,2 L12.9,2 Z" fill="currentColor" fill-rule="nonzero" opacity="0.3"/>
    </g>
    <g id="icon-overview" stroke="none" stroke-width="1" fill="none" fill-rule="evenodd">
        <rect x="0" y="0" width="24" height="24"/>
        <rect fill="currentColor" opacity="0.3" x="13" y="4" width="3" height="16" rx="1.5"/>
        <rect fill="currentColor" x="8" y="9" width="3" height="11" rx="1.5"/>
        <rect fill="currentColor" x="18" y="11" width="3" height="9" rx="1.5"/>
        <rect fill="currentColor" x="3" y="13" width="3" height="7" rx="1.5"/>
    </g>
    <g id="icon-open-in-tab">
        <path d="M9.5 0h.012a.42.42 0 0 1 .062.005L9.5 0a.5.5 0 0 1 .105.011l.046.012.04.015.041.019.035.02.035.024.039.033.024.024a.4.4 0 0 1 .033.039L9.854.146a.5.5 0 0 1 .069.087l.02.035.019.042.014.039.012.046.006.033c.003.017.004.035.005.052V6.5a.5.5 0 0 1-.992.09L9 6.5V1.706L.854 9.854a.5.5 0 0 1-.765-.638l.058-.069L8.292 1H3.5a.5.5 0 0 1-.492-.41L3 .5a.5.5 0 0 1 .41-.492L3.5 0h6z"></path>
    </g>
    <g id="icon-arrow-right" stroke="none" stroke-width="1" fill="none" fill-rule="evenodd">
        <polygon points="0 0 24 0 24 24 0 24"/>
        <rect fill="currentColor" opacity="0.3" transform="translate(12.000000, 12.000000) rotate(-90.000000) translate(-12.000000, -12.000000) " x="11" y="5" width="2" height="14" rx="1"/>
        <path d="M9.70710318,15.7071045 C9.31657888,16.0976288 8.68341391,16.0976288 8.29288961,15.7071045 C7.90236532,15.3165802 7.90236532,14.6834152 8.29288961,14.2928909 L14.2928896,8.29289093 C14.6714686,7.914312 15.281055,7.90106637 15.675721,8.26284357 L21.675721,13.7628436 C22.08284,14.136036 22.1103429,14.7686034 21.7371505,15.1757223 C21.3639581,15.5828413 20.7313908,15.6103443 20.3242718,15.2371519 L15.0300721,10.3841355 L9.70710318,15.7071045 Z" fill="currentColor" fill-rule="nonzero" transform="translate(14.999999, 11.999997) scale(1, -1) rotate(90.000000) translate(-14.999999, -11.999997) "/>
    </g>
</svg>